<svg width="136" height="35" viewBox="0 0 136 35" fill="none" xmlns="http://www.w3.org/2000/svg">
<path d="M125.751 2.79051C129.929 2.79051 133.329 6.10132 133.329 10.1689V24.8311C133.329 28.8986 129.929 32.2094 125.751 32.2094H10.2486C6.07147 32.2094 2.67147 28.8986 2.67147 24.8311V10.1689C2.67147 6.10132 6.07147 2.79051 10.2486 2.79051H125.751ZM125.751 0.331055H10.2486C4.6629 0.331055 0.145752 4.7297 0.145752 10.1689V24.8311C0.145752 30.2702 4.6629 34.6689 10.2486 34.6689H125.751C131.337 34.6689 135.854 30.2702 135.854 24.8311V10.1689C135.854 4.7297 131.337 0.331055 125.751 0.331055Z" fill="black" fill-opacity="0.87"/>
<path d="M15.0572 16.2233C14.3286 15.9395 13.6972 15.5138 13.1143 14.9936C12.7258 14.6152 12.5315 14.0949 12.5315 13.5274C12.4829 12.9598 12.6772 12.3922 13.0172 11.9192C13.3572 11.4936 13.8915 11.2571 14.4258 11.2571C15.0572 11.2098 15.64 11.4936 16.0286 11.9665C16.4658 12.5341 16.66 13.2909 16.6115 14.0003H19.6715V13.9057C19.7686 12.4868 19.2829 11.0679 18.2629 10.0274C17.2429 9.08141 15.8829 8.56114 14.4743 8.60844C13.1143 8.56114 11.7543 9.08141 10.7829 9.98006C9.86004 10.926 9.32575 12.203 9.37432 13.5274C9.27718 14.7571 9.76289 15.9868 10.6858 16.8855C11.7543 17.8314 13.0658 18.5409 14.4258 19.0138C15.1058 19.2976 15.7372 19.676 16.2229 20.1963C16.5629 20.6692 16.7572 21.2841 16.7572 21.8517C16.8058 22.4192 16.6115 22.9868 16.2229 23.4598C15.8343 23.8855 15.3 24.1219 14.7172 24.0747C14.0372 24.1219 13.3572 23.8382 12.8715 23.3652C12.3858 22.6557 12.1915 21.8517 12.24 21.0003H9.18004V21.0949C9.13147 22.9868 9.66575 24.4057 10.7829 25.3044C11.8515 26.2503 13.26 26.7233 14.7172 26.676C16.1258 26.7233 17.4372 26.2976 18.5057 25.399C19.4286 24.453 19.9629 23.1287 19.8658 21.8044C19.9143 20.5274 19.4772 19.2976 18.6515 18.3517C17.6315 17.3584 16.4172 16.649 15.0572 16.2233Z" fill="black" fill-opacity="0.87"/>
<path d="M31.2314 8.75L20.5457 8.84459V11.4932H24.2857L24.3828 26.3919L27.5399 26.3446L27.4428 11.4459H31.2314V8.75Z" fill="black" fill-opacity="0.87"/>
<path d="M42.1115 10.2164C40.9944 9.03401 39.4401 8.37185 37.7886 8.46645C36.1858 8.41915 34.5829 9.08131 33.5144 10.2637C32.4458 11.4462 31.9115 13.0543 31.9601 15.1354V20.007C32.0086 22.0881 32.5429 23.6962 33.6115 24.8313C34.6801 26.0137 36.2829 26.6286 37.9344 26.534C39.5372 26.6286 41.1401 25.9664 42.2086 24.784C43.2772 23.6489 43.8115 21.9935 43.8115 19.9597V15.0408C43.7629 13.007 43.1801 11.3516 42.1115 10.2164ZM39.9744 22.8921C39.4886 23.5543 38.7115 23.9327 37.8858 23.8854C37.0601 23.9327 36.3315 23.5543 35.8458 22.9394C35.3115 22.0408 35.0686 21.0475 35.1172 20.007V15.0408C35.0686 14.0475 35.3115 13.0543 35.7972 12.1556C36.2344 11.4935 37.0115 11.1151 37.8372 11.1624C38.6629 11.1151 39.4401 11.4935 39.9258 12.1556C40.4115 12.7705 40.6544 13.7637 40.7029 15.0408V19.9597C40.6544 21.284 40.4601 22.23 39.9744 22.8921Z" fill="black" fill-opacity="0.87"/>
<path d="M56.2456 24.7368C56.1485 24.2166 56.0999 23.7436 56.0999 23.2233V21.9463C56.0999 21.0477 55.9056 20.149 55.517 19.2977C55.1285 18.5882 54.4485 18.0206 53.6713 17.7841C54.3513 17.4058 54.9342 16.8382 55.3227 16.176C55.7113 15.4666 55.9056 14.6152 55.9056 13.8112C55.9056 12.1558 55.4199 10.926 54.497 10.0274C53.5742 9.12874 52.3113 8.65576 50.7085 8.65576H45.8027L45.9484 26.2504H49.057V19.2031H50.9513C51.5342 19.1558 52.117 19.4868 52.4085 19.9598C52.797 20.5747 52.9913 21.2841 52.9427 21.9936V23.2233C52.9427 23.7909 52.9913 24.3585 53.0399 24.9733C53.0885 25.4463 53.2342 25.872 53.5742 26.2031H56.8285V25.9193C56.4885 25.5882 56.2942 25.1625 56.2456 24.7368ZM52.2627 15.8449C51.8742 16.3179 51.2913 16.5544 50.7085 16.5071H49.0085V11.3044H50.7085C51.2913 11.2571 51.8742 11.5409 52.2142 12.0139C52.6027 12.5814 52.797 13.2909 52.797 14.0004C52.8456 14.6625 52.6513 15.2774 52.2627 15.8449Z" fill="black" fill-opacity="0.87"/>
<path d="M69.2629 8.56104H65.8143L63.0457 16.2232H62.9972L60.1314 8.60833H56.7314L61.4429 19.6759L61.4914 26.1556H64.6L64.5514 19.8651L69.2629 8.56104Z" fill="black" fill-opacity="0.87"/>
<path d="M78.3943 23.0812C78.2 23.2704 78.1029 23.4596 78.0057 23.6961C77.9572 23.4596 77.8114 23.2231 77.6172 23.0812C77.0343 22.419 75.9657 22.3717 75.2857 22.9393C75.2372 22.9866 75.1886 23.0339 75.14 23.0812C74.9943 23.2704 74.8486 23.4596 74.8 23.6961C74.7029 23.4596 74.5572 23.2704 74.4114 23.0812C74.2172 22.8447 73.9743 22.7028 73.6829 22.6082C73.9743 22.5136 74.2172 22.3244 74.4114 22.1353C74.7514 21.7569 74.8972 21.2839 74.8972 20.8109C74.8972 20.338 74.7514 19.9123 74.4114 19.5812C74.2172 19.392 73.9743 19.2028 73.6829 19.1082C73.9743 19.0136 74.2172 18.8245 74.4114 18.6353C74.7514 18.3042 74.8972 17.8312 74.8972 17.3582C74.9457 16.8853 74.7514 16.4123 74.4114 16.0812C74.2172 15.892 73.9743 15.7028 73.6829 15.6082C73.9743 15.5136 74.2172 15.3245 74.4114 15.1353C74.7514 14.8042 74.8972 14.3312 74.8972 13.8582C74.9457 13.3853 74.7514 12.9123 74.4114 12.5812C74.2172 12.392 73.9743 12.2028 73.6829 12.1082C73.9743 12.0136 74.2172 11.8245 74.4114 11.6353C74.5572 11.4461 74.7029 11.2569 74.8 11.0204C74.8486 11.2569 74.9943 11.4934 75.1886 11.6353C75.7715 12.2974 76.7914 12.3447 77.4714 11.7772C77.52 11.7299 77.5686 11.6826 77.6172 11.6353C77.8114 11.4934 77.9572 11.2569 78.0057 11.0204C78.1029 11.2569 78.2 11.4461 78.3943 11.6353C79.0257 12.2974 80.0943 12.3447 80.7743 11.7299C80.8229 11.7299 80.8229 11.6826 80.8714 11.6353C81.5514 10.9258 81.5514 9.79067 80.8714 9.08121C80.24 8.41905 79.1714 8.37175 78.4914 8.98662C78.4429 8.98662 78.4429 9.03391 78.3943 9.08121C78.2 9.2704 78.1029 9.45959 78.0057 9.69607C77.9572 9.45959 77.8114 9.2231 77.6172 9.08121C77.0343 8.41905 76.0143 8.37175 75.3343 8.93932C75.2857 8.98662 75.2372 9.03391 75.1886 9.08121C74.9943 9.2231 74.8486 9.45959 74.8 9.69607C74.7029 9.45959 74.5572 9.2704 74.4114 9.08121C73.78 8.41905 72.7115 8.37175 72.0315 8.98662C71.9829 8.98662 71.9829 9.03391 71.9343 9.08121C71.2543 9.79067 71.2543 10.9258 71.9343 11.6353C72.1286 11.8717 72.42 12.0136 72.7115 12.1082C72.42 12.2028 72.1286 12.3447 71.9343 12.5812C71.5943 12.9123 71.4 13.3853 71.4486 13.8582C71.4486 14.3312 71.5943 14.8042 71.9343 15.1353C72.1286 15.3717 72.42 15.5136 72.7115 15.6082C72.42 15.7028 72.1286 15.8447 71.9343 16.0812C71.5943 16.4123 71.4 16.8853 71.4486 17.3582C71.4486 17.8312 71.5943 18.3042 71.9343 18.6353C72.1286 18.8717 72.42 19.0136 72.7115 19.1082C72.42 19.2028 72.1286 19.3447 71.9343 19.5812C71.5943 19.9123 71.4486 20.338 71.4486 20.8109C71.4486 21.2839 71.5943 21.7569 71.9343 22.1353C72.1286 22.3717 72.42 22.5136 72.7115 22.6082C72.42 22.7028 72.1286 22.8447 71.9343 23.0812C71.5943 23.4123 71.4486 23.838 71.4486 24.3109C71.4486 24.7839 71.5943 25.2569 71.9343 25.6353C72.5657 26.2974 73.6343 26.3447 74.3143 25.7299C74.3629 25.7299 74.3629 25.6826 74.4114 25.6353C74.5572 25.4461 74.7029 25.2096 74.8 24.9731C74.8486 25.2096 74.9943 25.4461 75.1886 25.6353C75.82 26.2974 76.84 26.3447 77.52 25.7299C77.5686 25.6826 77.5686 25.6826 77.6172 25.6353C77.8114 25.4461 77.9572 25.2096 78.0057 24.9731C78.1029 25.2096 78.2 25.4461 78.3943 25.6353C78.7343 25.9663 79.1714 26.1555 79.6086 26.1555C80.0943 26.1555 80.5314 25.9663 80.8714 25.6353C81.2114 25.2569 81.3572 24.7839 81.3572 24.3109C81.3572 23.838 81.2114 23.4123 80.8714 23.0812C80.2886 22.419 79.22 22.3717 78.54 22.9393C78.4914 22.9866 78.4429 23.0339 78.3943 23.0812Z" fill="#8F3FE6"/>
<path d="M84.6114 13.8582C84.6114 13.3853 84.4171 12.9123 84.0771 12.5812C83.4943 11.919 82.4743 11.8718 81.7943 12.4393C81.7457 12.4866 81.6971 12.5339 81.6485 12.5812C81.3085 12.9123 81.1143 13.3853 81.1143 13.8582C81.1143 14.3312 81.3085 14.8042 81.6485 15.1353C81.8428 15.3717 82.0857 15.5136 82.3771 15.6082C82.0857 15.7028 81.8428 15.8447 81.6485 16.0812C81.3085 16.4123 81.1143 16.8853 81.1143 17.3582C81.1143 17.8312 81.3085 18.3042 81.6485 18.6353C81.8428 18.8717 82.0857 19.0136 82.3771 19.1082C82.0857 19.2028 81.8428 19.3447 81.6485 19.5812C81.3085 19.9123 81.1143 20.338 81.1143 20.8109C81.1143 21.2839 81.3085 21.7569 81.6485 22.1353C82.28 22.7974 83.3 22.8447 83.98 22.2299C84.0285 22.1826 84.0285 22.1826 84.0771 22.1353C84.4171 21.7569 84.6114 21.2839 84.6114 20.8109C84.6114 20.338 84.4171 19.9123 84.0771 19.5812C83.8828 19.3447 83.64 19.2028 83.3485 19.1082C83.64 19.0136 83.8828 18.8717 84.0771 18.6353C84.4171 18.3042 84.6114 17.8312 84.6114 17.3582C84.6114 16.8853 84.4171 16.4123 84.0771 16.0812C83.8828 15.8447 83.64 15.7028 83.3485 15.6082C83.64 15.5136 83.8828 15.3717 84.0771 15.1353C84.4171 14.8042 84.6114 14.3312 84.6114 13.8582Z" fill="#8F3FE6"/>
<path d="M93.5972 11.6354C93.743 11.4462 93.8887 11.257 93.9858 11.0206C94.0344 11.257 94.1801 11.4462 94.3258 11.6354C94.6658 11.9665 95.103 12.1557 95.5887 12.1557C96.0744 12.1557 96.5115 11.9665 96.803 11.6354C97.483 10.926 97.483 9.79083 96.803 9.08137C96.1715 8.41921 95.103 8.37191 94.423 8.98678C94.3744 8.98678 94.3744 9.03407 94.3258 9.08137C94.1801 9.27056 94.0344 9.45975 93.9858 9.69624C93.8887 9.45975 93.743 9.27056 93.5972 9.08137C92.9658 8.41921 91.8972 8.37191 91.2172 8.98678C91.1687 8.98678 91.1687 9.03407 91.1201 9.08137C90.4401 9.79083 90.4401 10.926 91.1201 11.6354C91.7515 12.2976 92.8201 12.3449 93.5001 11.73C93.5487 11.6827 93.5972 11.6354 93.5972 11.6354Z" fill="#8F3FE6"/>
<path d="M90.3427 19.5814C90.1485 19.3449 89.9056 19.203 89.6142 19.1084C89.9056 19.0138 90.1485 18.8719 90.3427 18.6354C90.6827 18.3043 90.8285 17.8314 90.8285 17.3584C90.877 16.8854 90.6827 16.4125 90.3427 16.0814C90.1485 15.8449 89.9056 15.703 89.6142 15.6084C89.9056 15.5138 90.1485 15.3719 90.3427 15.1354C90.6827 14.8043 90.8285 14.3314 90.8285 13.8584C90.877 13.3854 90.6827 12.9125 90.3427 12.5814C89.7113 11.9192 88.6427 11.8719 87.9627 12.4868C87.9142 12.4868 87.9142 12.5341 87.8656 12.5814C87.5742 12.9125 87.3799 13.3854 87.3799 13.8584C87.3799 14.3314 87.5742 14.757 87.8656 15.1354C88.0599 15.3719 88.3513 15.5138 88.6427 15.6084C88.3513 15.703 88.0599 15.8449 87.8656 16.0814C87.5742 16.4125 87.3799 16.8854 87.3799 17.3584C87.3799 17.8314 87.5742 18.257 87.8656 18.6354C88.0599 18.8719 88.3513 19.0138 88.6427 19.1084C88.3513 19.203 88.0599 19.3449 87.8656 19.5814C87.5742 19.9125 87.3799 20.3381 87.3799 20.8111C87.3799 21.2841 87.5742 21.757 87.8656 22.1354C88.2056 22.4665 88.6427 22.6557 89.1285 22.6557C89.6142 22.6557 90.0513 22.4665 90.3427 22.1354C90.6827 21.757 90.8285 21.2841 90.8285 20.8111C90.8285 20.3381 90.6827 19.9125 90.3427 19.5814Z" fill="#8F3FE6"/>
<path d="M94.3257 23.0812C94.18 23.2704 94.0343 23.4596 93.9857 23.6961C93.8886 23.4596 93.7428 23.2704 93.5971 23.0812C93.0143 22.419 91.9457 22.3718 91.2657 22.9393C91.2171 22.9866 91.1686 23.0339 91.12 23.0812C90.78 23.4123 90.6343 23.838 90.6343 24.3109C90.6343 24.7839 90.78 25.2569 91.12 25.6353C91.7514 26.2974 92.82 26.3447 93.5 25.7299C93.5486 25.7299 93.5486 25.6826 93.5971 25.6353C93.7428 25.4461 93.8886 25.2096 93.9857 24.9731C94.0343 25.2096 94.18 25.4461 94.3257 25.6353C94.6657 25.9664 95.1028 26.1555 95.5885 26.1555C96.0743 26.1555 96.5114 25.9664 96.8028 25.6353C97.1428 25.2569 97.2885 24.7839 97.2885 24.3109C97.2885 23.838 97.1428 23.4123 96.8028 23.0812C96.22 22.419 95.1514 22.3718 94.4714 22.9393C94.4228 22.9866 94.3743 23.0339 94.3257 23.0812Z" fill="#8F3FE6"/>
<path d="M100.543 13.8584C100.543 13.3854 100.349 12.9125 100.057 12.5814C99.4257 11.9192 98.3571 11.8719 97.6772 12.4868C97.6286 12.4868 97.6286 12.5341 97.58 12.5814C97.24 12.9125 97.0457 13.3854 97.0943 13.8584C97.0943 14.3314 97.24 14.8043 97.58 15.1354C97.7743 15.3719 98.0171 15.5138 98.3086 15.6084C98.0171 15.703 97.7743 15.8449 97.58 16.0814C97.24 16.4125 97.0457 16.8854 97.0943 17.3584C97.0943 17.8314 97.24 18.3043 97.58 18.6354C97.7743 18.8719 98.0171 19.0138 98.3086 19.1084C98.0171 19.203 97.7743 19.3449 97.58 19.5814C97.24 19.9125 97.0943 20.3381 97.0943 20.8111C97.0943 21.2841 97.24 21.757 97.58 22.1354C97.8714 22.4665 98.3086 22.6557 98.7943 22.6557C99.28 22.6557 99.7171 22.4665 100.057 22.1354C100.349 21.757 100.543 21.2841 100.543 20.8111C100.543 20.3381 100.349 19.9125 100.057 19.5814C99.8628 19.3449 99.5714 19.203 99.28 19.1084C99.5714 19.0138 99.8628 18.8719 100.057 18.6354C100.349 18.257 100.543 17.8314 100.543 17.3584C100.543 16.8854 100.349 16.4125 100.057 16.0814C99.8628 15.8449 99.5714 15.703 99.28 15.6084C99.5714 15.5138 99.8628 15.3719 100.057 15.1354C100.349 14.757 100.543 14.3314 100.543 13.8584Z" fill="#8F3FE6"/>
<path d="M109.092 9.08137C108.946 9.27056 108.8 9.45975 108.752 9.69624C108.654 9.45975 108.509 9.27056 108.363 9.08137C107.732 8.41921 106.663 8.37191 105.983 8.98678C105.934 8.98678 105.934 9.03407 105.886 9.08137C105.692 9.27056 105.594 9.45975 105.497 9.69624C105.4 9.45975 105.303 9.27056 105.109 9.08137C104.477 8.41921 103.409 8.37191 102.729 8.98678C102.68 8.98678 102.68 9.03407 102.632 9.08137C102.292 9.41245 102.097 9.88542 102.146 10.3584C102.146 10.8314 102.292 11.3043 102.632 11.6354C103.263 12.2976 104.332 12.3449 105.012 11.73C105.06 11.73 105.06 11.6827 105.109 11.6354C105.303 11.4462 105.4 11.257 105.497 11.0206C105.594 11.257 105.692 11.4462 105.886 11.6354C106.08 11.8719 106.323 12.0138 106.614 12.1084C106.323 12.203 106.08 12.3449 105.886 12.5814C105.546 12.9125 105.352 13.3854 105.352 13.8584C105.352 14.3314 105.546 14.8043 105.886 15.1354C106.08 15.3719 106.323 15.5138 106.614 15.6084C106.323 15.703 106.08 15.8449 105.886 16.0814C105.546 16.4125 105.352 16.8854 105.352 17.3584C105.352 17.8314 105.546 18.3043 105.886 18.6354C106.08 18.8719 106.323 19.0138 106.614 19.1084C105.886 19.3922 105.4 20.0543 105.352 20.8111C105.352 21.2841 105.546 21.7571 105.886 22.1354C106.08 22.3719 106.323 22.5138 106.614 22.6084C106.323 22.703 106.08 22.8449 105.886 23.0814C105.546 23.4125 105.352 23.8381 105.352 24.3111C105.352 24.7841 105.546 25.2571 105.886 25.6354C106.177 25.9665 106.614 26.1557 107.1 26.1557C107.586 26.1557 108.023 25.9665 108.363 25.6354C108.703 25.2571 108.849 24.7841 108.849 24.3111C108.849 23.8381 108.703 23.4125 108.363 23.0814C108.169 22.8449 107.877 22.703 107.586 22.6084C107.877 22.5138 108.169 22.3719 108.363 22.1354C108.703 21.7571 108.849 21.2841 108.849 20.8111C108.849 20.3381 108.703 19.9125 108.363 19.5814C108.169 19.3449 107.877 19.203 107.586 19.1084C108.363 18.8719 108.897 18.1625 108.849 17.3584C108.897 16.8854 108.703 16.4125 108.363 16.0814C108.169 15.8449 107.877 15.703 107.586 15.6084C108.363 15.3719 108.897 14.6625 108.849 13.8584C108.897 13.3854 108.703 12.9125 108.363 12.5814C108.169 12.3449 107.877 12.203 107.586 12.1084C107.877 12.0138 108.169 11.8719 108.363 11.6354C108.509 11.4462 108.654 11.257 108.752 11.0206C108.8 11.257 108.946 11.4462 109.092 11.6354C109.723 12.2976 110.792 12.3449 111.472 11.73C111.52 11.73 111.52 11.6827 111.569 11.6354C111.909 11.3043 112.103 10.8314 112.103 10.3584C112.103 9.88542 111.909 9.41245 111.569 9.08137C110.937 8.41921 109.869 8.37191 109.189 8.98678C109.14 9.03407 109.092 9.03407 109.092 9.08137Z" fill="#8F3FE6"/>
<path d="M120.651 16.0812C120.457 16.2704 120.36 16.4596 120.263 16.6961C120.166 16.4596 120.069 16.2704 119.874 16.0812C119.291 15.419 118.223 15.3718 117.543 15.9393C117.494 15.9866 117.446 16.0339 117.397 16.0812C117.106 16.4123 116.911 16.8853 116.911 17.3582C116.911 17.8312 117.106 18.2569 117.397 18.6353C118.029 19.2974 119.097 19.3447 119.777 18.7299C119.826 18.7299 119.826 18.6826 119.874 18.6353C120.02 18.4461 120.166 18.2569 120.263 18.0204C120.36 18.2569 120.506 18.4461 120.651 18.6353C120.943 18.9663 121.38 19.1555 121.866 19.1555C122.351 19.1555 122.789 18.9663 123.129 18.6353C123.42 18.2569 123.614 17.8312 123.614 17.3582C123.614 16.8853 123.42 16.4123 123.129 16.0812C122.497 15.419 121.429 15.3718 120.749 15.9866C120.7 16.0339 120.651 16.0339 120.651 16.0812Z" fill="#8F3FE6"/>
<path d="M119.874 11.6354C120.069 11.4462 120.166 11.257 120.263 11.0206C120.36 11.257 120.457 11.4462 120.651 11.6354C121.283 12.2976 122.352 12.3449 123.032 11.73C123.08 11.73 123.08 11.6827 123.129 11.6354C123.274 11.4462 123.42 11.257 123.517 11.0206C123.712 11.73 124.392 12.203 125.12 12.1557C125.606 12.1557 126.043 11.9665 126.334 11.6354C127.014 10.926 127.014 9.79083 126.334 9.08137C125.703 8.41921 124.634 8.37191 123.954 8.98678C123.906 8.98678 123.906 9.03407 123.857 9.08137C123.712 9.27056 123.566 9.45975 123.517 9.69624C123.42 9.45975 123.274 9.27056 123.129 9.08137C122.497 8.41921 121.429 8.37191 120.749 8.98678C120.7 8.98678 120.7 9.03407 120.651 9.08137C120.457 9.27056 120.36 9.45975 120.263 9.69624C120.166 9.45975 120.069 9.27056 119.874 9.08137C119.243 8.41921 118.174 8.37191 117.494 8.98678C117.446 8.98678 117.446 9.03407 117.397 9.08137C116.717 9.79083 116.717 10.926 117.397 11.6354C118.029 12.2976 119.097 12.3449 119.777 11.73C119.826 11.6827 119.874 11.6354 119.874 11.6354Z" fill="#8F3FE6"/>
<path d="M120.651 23.0812C120.457 23.2704 120.36 23.4596 120.263 23.6961C120.166 23.4596 120.069 23.2704 119.874 23.0812C119.292 22.419 118.223 22.3718 117.543 22.9393C117.494 22.9866 117.446 23.0339 117.397 23.0812C117.252 23.2704 117.106 23.4596 117.009 23.6961C116.96 23.4596 116.814 23.2704 116.669 23.0812C116.086 22.419 115.017 22.3718 114.337 22.9393C114.289 22.9866 114.24 23.0339 114.192 23.0812C113.852 23.4123 113.706 23.838 113.706 24.3109C113.706 24.7839 113.852 25.2569 114.192 25.6353C114.823 26.2974 115.892 26.3447 116.572 25.7299C116.62 25.7299 116.62 25.6826 116.669 25.6353C116.814 25.4461 116.96 25.2096 117.009 24.9731C117.106 25.2096 117.252 25.4461 117.397 25.6353C118.029 26.2974 119.097 26.3447 119.777 25.7299C119.826 25.7299 119.826 25.6826 119.874 25.6353C120.069 25.4461 120.166 25.2096 120.263 24.9731C120.36 25.2096 120.457 25.4461 120.651 25.6353C120.943 25.9664 121.38 26.1555 121.866 26.1555C122.351 26.1555 122.789 25.9664 123.129 25.6353C123.42 25.2569 123.614 24.7839 123.614 24.3109C123.614 23.838 123.42 23.4123 123.129 23.0812C122.546 22.419 121.477 22.3718 120.797 22.9393C120.749 22.9866 120.7 23.0339 120.651 23.0812Z" fill="#8F3FE6"/>
<path d="M115.406 15.6557C115.892 15.6557 116.329 15.4665 116.669 15.1354C116.96 14.757 117.154 14.3314 117.154 13.8584C117.154 13.3854 116.96 12.9125 116.669 12.5814C116.037 11.9192 114.969 11.8719 114.289 12.4868C114.24 12.4868 114.24 12.5341 114.192 12.5814C113.852 12.9125 113.657 13.3854 113.706 13.8584C113.706 14.3314 113.852 14.8043 114.192 15.1354C114.483 15.4665 114.92 15.6557 115.406 15.6557Z" fill="#8F3FE6"/>
<path d="M123.857 19.5812C123.566 19.9123 123.371 20.338 123.371 20.8109C123.371 21.2839 123.566 21.7569 123.857 22.1353C124.197 22.4663 124.634 22.6555 125.12 22.6555C125.606 22.6555 126.043 22.4663 126.334 22.1353C126.674 21.7569 126.82 21.2839 126.82 20.8109C126.82 20.338 126.674 19.9123 126.334 19.5812C125.751 18.919 124.683 18.8718 124.003 19.4393C123.954 19.4866 123.906 19.5339 123.857 19.5812Z" fill="#8F3FE6"/>
</svg>
