<svg width="151" height="40" viewBox="0 0 151 40" fill="none" xmlns="http://www.w3.org/2000/svg">
<g clip-path="url(#clip0_802:8889)">
<path d="M139.196 3.60944C143.803 3.60944 147.553 7.29863 147.553 11.8311V28.1689C147.553 32.7013 143.803 36.3905 139.196 36.3905H11.8035C7.19636 36.3905 3.44636 32.7013 3.44636 28.1689V11.8311C3.44636 7.29863 7.19636 3.60944 11.8035 3.60944H139.196ZM139.196 0.868896H11.8035C5.64279 0.868896 0.660645 5.77025 0.660645 11.8311V28.1689C0.660645 34.2297 5.64279 39.1311 11.8035 39.1311H139.196C145.357 39.1311 150.339 34.2297 150.339 28.1689V11.8311C150.339 5.77025 145.357 0.868896 139.196 0.868896Z" fill="white"/>
<path d="M17.1071 18.5771C16.3035 18.2608 15.6071 17.7865 14.9642 17.2068C14.5356 16.7852 14.3214 16.2054 14.3214 15.573C14.2678 14.9406 14.4821 14.3081 14.8571 13.7811C15.2321 13.3068 15.8214 13.0433 16.4106 13.0433C17.1071 12.9906 17.7499 13.3068 18.1785 13.8338C18.6606 14.4663 18.8749 15.3095 18.8214 16.1H22.1964V15.9946C22.3035 14.4136 21.7678 12.8325 20.6428 11.673C19.5178 10.619 18.0178 10.0392 16.4642 10.0919C14.9642 10.0392 13.4642 10.619 12.3928 11.6203C11.3749 12.6744 10.7856 14.0973 10.8392 15.573C10.7321 16.9433 11.2678 18.3136 12.2856 19.3149C13.4642 20.369 14.9106 21.1595 16.4106 21.6865C17.1606 22.0027 17.8571 22.4244 18.3928 23.0041C18.7678 23.5311 18.9821 24.2163 18.9821 24.8487C19.0356 25.4811 18.8214 26.1135 18.3928 26.6406C17.9642 27.1149 17.3749 27.3784 16.7321 27.3257C15.9821 27.3784 15.2321 27.0622 14.6964 26.5352C14.1606 25.7446 13.9464 24.8487 13.9999 23.9H10.6249V24.0054C10.5714 26.1135 11.1606 27.6946 12.3928 28.696C13.5714 29.75 15.1249 30.2771 16.7321 30.2244C18.2856 30.2771 19.7321 29.8027 20.9106 28.8014C21.9285 27.7473 22.5178 26.2717 22.4106 24.796C22.4642 23.373 21.9821 22.0027 21.0714 20.9487C19.9464 19.8419 18.6071 19.0514 17.1071 18.5771Z" fill="white"/>
<path d="M34.9464 10.25L23.1606 10.3554V13.3068H27.2856L27.3928 29.9081L30.8749 29.8554L30.7678 13.2541H34.9464V10.25Z" fill="white"/>
<path d="M46.9464 11.8838C45.7142 10.5663 43.9999 9.82843 42.1785 9.93384C40.4107 9.88113 38.6428 10.619 37.4642 11.9365C36.2856 13.2541 35.6964 15.046 35.7499 17.3649V22.7933C35.8035 25.1122 36.3928 26.9041 37.5714 28.169C38.7499 29.4865 40.5178 30.1717 42.3392 30.0663C44.1071 30.1717 45.8749 29.4338 47.0535 28.1163C48.2321 26.8514 48.8214 25.0068 48.8214 22.7406V17.2595C48.7678 14.9933 48.1249 13.1487 46.9464 11.8838ZM44.5892 26.0082C44.0535 26.746 43.1964 27.1676 42.2857 27.1149C41.3749 27.1676 40.5714 26.746 40.0357 26.0609C39.4464 25.0595 39.1785 23.9528 39.2321 22.7933V17.2595C39.1785 16.1528 39.4464 15.046 39.9821 14.0446C40.4642 13.3068 41.3214 12.8852 42.2321 12.9379C43.1428 12.8852 43.9999 13.3068 44.5357 14.0446C45.0714 14.7298 45.3392 15.8365 45.3928 17.2595V22.7406C45.3392 24.2163 45.1249 25.2703 44.5892 26.0082Z" fill="white"/>
<path d="M62.5354 28.0636C62.4283 27.4838 62.3747 26.9568 62.3747 26.3771V24.9541C62.3747 23.9528 62.1604 22.9514 61.7319 22.0028C61.3033 21.2122 60.5533 20.5798 59.6962 20.3163C60.4462 19.8947 61.089 19.2622 61.5176 18.5244C61.9462 17.7338 62.1604 16.7852 62.1604 15.8892C62.1604 14.0447 61.6247 12.6744 60.6069 11.673C59.589 10.6717 58.1962 10.1447 56.4283 10.1447H51.0176L51.1783 29.7501H54.6069V21.8974H56.6962C57.339 21.8447 57.9819 22.2136 58.3033 22.7406C58.7319 23.4257 58.9462 24.2163 58.8926 25.0068V26.3771C58.8926 27.0095 58.9462 27.6419 58.9997 28.3271C59.0533 28.8541 59.214 29.3284 59.589 29.6974H63.1783V29.3811C62.8033 29.0122 62.589 28.5379 62.5354 28.0636ZM58.1426 18.1555C57.714 18.6825 57.0712 18.946 56.4283 18.8933H54.5533V13.096H56.4283C57.0712 13.0433 57.714 13.3595 58.089 13.8865C58.5176 14.519 58.7319 15.3095 58.7319 16.1001C58.7854 16.8379 58.5712 17.523 58.1426 18.1555Z" fill="white"/>
<path d="M76.8927 10.0392H73.0892L70.0356 18.5771H69.982L66.8213 10.0919H63.0713L68.2677 22.4244L68.3213 29.6446H71.7499L71.6963 22.6352L76.8927 10.0392Z" fill="white"/>
<path d="M86.9643 26.2188C86.75 26.4296 86.6429 26.6404 86.5358 26.904C86.4822 26.6404 86.3215 26.3769 86.1072 26.2188C85.4643 25.481 84.2858 25.4283 83.5358 26.0607C83.4822 26.1134 83.4286 26.1661 83.3751 26.2188C83.2143 26.4296 83.0536 26.6404 83.0001 26.904C82.8929 26.6404 82.7322 26.4296 82.5715 26.2188C82.3572 25.9553 82.0893 25.7972 81.7679 25.6918C82.0893 25.5864 82.3572 25.3756 82.5715 25.1648C82.9465 24.7432 83.1072 24.2161 83.1072 23.6891C83.1072 23.1621 82.9465 22.6877 82.5715 22.3188C82.3572 22.108 82.0893 21.8972 81.7679 21.7918C82.0893 21.6864 82.3572 21.4756 82.5715 21.2648C82.9465 20.8959 83.1072 20.3688 83.1072 19.8418C83.1608 19.3148 82.9465 18.7877 82.5715 18.4188C82.3572 18.208 82.0893 17.9972 81.7679 17.8918C82.0893 17.7864 82.3572 17.5756 82.5715 17.3648C82.9465 16.9959 83.1072 16.4688 83.1072 15.9418C83.1608 15.4148 82.9465 14.8878 82.5715 14.5188C82.3572 14.308 82.0893 14.0972 81.7679 13.9918C82.0893 13.8864 82.3572 13.6756 82.5715 13.4648C82.7322 13.254 82.8929 13.0432 83.0001 12.7796C83.0536 13.0432 83.2143 13.3067 83.4286 13.4648C84.0715 14.2026 85.1965 14.2553 85.9465 13.6229C86.0001 13.5702 86.0536 13.5175 86.1072 13.4648C86.3215 13.3067 86.4822 13.0432 86.5358 12.7796C86.6429 13.0432 86.75 13.254 86.9643 13.4648C87.6608 14.2026 88.8393 14.2553 89.5893 13.5702C89.6429 13.5702 89.6429 13.5175 89.6965 13.4648C90.4465 12.6742 90.4465 11.4094 89.6965 10.6188C89 9.881 87.8215 9.82829 87.0715 10.5134C87.0179 10.5134 87.0179 10.5661 86.9643 10.6188C86.75 10.8296 86.6429 11.0405 86.5358 11.304C86.4822 11.0405 86.3215 10.7769 86.1072 10.6188C85.4643 9.881 84.3393 9.82829 83.5893 10.4607C83.5358 10.5134 83.4822 10.5661 83.4286 10.6188C83.2143 10.7769 83.0536 11.0405 83.0001 11.304C82.8929 11.0405 82.7322 10.8296 82.5715 10.6188C81.8751 9.881 80.6965 9.82829 79.9465 10.5134C79.8929 10.5134 79.8929 10.5661 79.8394 10.6188C79.0894 11.4094 79.0894 12.6742 79.8394 13.4648C80.0536 13.7283 80.3751 13.8864 80.6965 13.9918C80.3751 14.0972 80.0536 14.2553 79.8394 14.5188C79.4644 14.8878 79.2501 15.4148 79.3036 15.9418C79.3036 16.4688 79.4644 16.9959 79.8394 17.3648C80.0536 17.6283 80.3751 17.7864 80.6965 17.8918C80.3751 17.9972 80.0536 18.1553 79.8394 18.4188C79.4644 18.7877 79.2501 19.3148 79.3036 19.8418C79.3036 20.3688 79.4644 20.8959 79.8394 21.2648C80.0536 21.5283 80.3751 21.6864 80.6965 21.7918C80.3751 21.8972 80.0536 22.0553 79.8394 22.3188C79.4644 22.6877 79.3036 23.1621 79.3036 23.6891C79.3036 24.2161 79.4644 24.7432 79.8394 25.1648C80.0536 25.4283 80.3751 25.5864 80.6965 25.6918C80.3751 25.7972 80.0536 25.9553 79.8394 26.2188C79.4644 26.5877 79.3036 27.0621 79.3036 27.5891C79.3036 28.1161 79.4644 28.6432 79.8394 29.0648C80.5358 29.8026 81.7143 29.8553 82.4643 29.1702C82.5179 29.1702 82.5179 29.1175 82.5715 29.0648C82.7322 28.854 82.8929 28.5905 83.0001 28.3269C83.0536 28.5905 83.2143 28.854 83.4286 29.0648C84.1251 29.8026 85.2501 29.8553 86.0001 29.1702C86.0536 29.1175 86.0536 29.1175 86.1072 29.0648C86.3215 28.854 86.4822 28.5905 86.5358 28.3269C86.6429 28.5905 86.75 28.854 86.9643 29.0648C87.3393 29.4337 87.8215 29.6445 88.3036 29.6445C88.8393 29.6445 89.3215 29.4337 89.6965 29.0648C90.0715 28.6432 90.2322 28.1161 90.2322 27.5891C90.2322 27.0621 90.0715 26.5877 89.6965 26.2188C89.0536 25.481 87.875 25.4283 87.125 26.0607C87.0715 26.1134 87.0179 26.1661 86.9643 26.2188Z" fill="white"/>
<path d="M93.8215 15.9418C93.8215 15.4147 93.6072 14.8877 93.2322 14.5188C92.5894 13.781 91.4644 13.7283 90.7144 14.3607C90.6608 14.4134 90.6072 14.4661 90.5536 14.5188C90.1786 14.8877 89.9644 15.4147 89.9644 15.9418C89.9644 16.4688 90.1786 16.9958 90.5536 17.3647C90.7679 17.6283 91.0358 17.7864 91.3572 17.8918C91.0358 17.9972 90.7679 18.1553 90.5536 18.4188C90.1786 18.7877 89.9644 19.3147 89.9644 19.8418C89.9644 20.3688 90.1786 20.8958 90.5536 21.2647C90.7679 21.5283 91.0358 21.6864 91.3572 21.7918C91.0358 21.8972 90.7679 22.0553 90.5536 22.3188C90.1786 22.6877 89.9644 23.162 89.9644 23.6891C89.9644 24.2161 90.1786 24.7431 90.5536 25.1647C91.2501 25.9026 92.3751 25.9553 93.1251 25.2701C93.1786 25.2174 93.1786 25.2174 93.2322 25.1647C93.6072 24.7431 93.8215 24.2161 93.8215 23.6891C93.8215 23.162 93.6072 22.6877 93.2322 22.3188C93.0179 22.0553 92.7501 21.8972 92.4286 21.7918C92.7501 21.6864 93.0179 21.5283 93.2322 21.2647C93.6072 20.8958 93.8215 20.3688 93.8215 19.8418C93.8215 19.3147 93.6072 18.7877 93.2322 18.4188C93.0179 18.1553 92.7501 17.9972 92.4286 17.8918C92.7501 17.7864 93.0179 17.6283 93.2322 17.3647C93.6072 16.9958 93.8215 16.4688 93.8215 15.9418Z" fill="white"/>
<path d="M103.732 13.4647C103.893 13.2539 104.054 13.0431 104.161 12.7795C104.214 13.0431 104.375 13.2539 104.536 13.4647C104.911 13.8336 105.393 14.0444 105.929 14.0444C106.464 14.0444 106.946 13.8336 107.268 13.4647C108.018 12.6741 108.018 11.4093 107.268 10.6187C106.571 9.88089 105.393 9.82818 104.643 10.5133C104.589 10.5133 104.589 10.566 104.536 10.6187C104.375 10.8295 104.214 11.0403 104.161 11.3039C104.054 11.0403 103.893 10.8295 103.732 10.6187C103.036 9.88089 101.857 9.82818 101.107 10.5133C101.054 10.5133 101.054 10.566 101 10.6187C100.25 11.4093 100.25 12.6741 101 13.4647C101.696 14.2025 102.875 14.2552 103.625 13.5701C103.679 13.5174 103.732 13.4647 103.732 13.4647Z" fill="white"/>
<path d="M100.143 22.3189C99.9286 22.0554 99.6607 21.8972 99.3393 21.7918C99.6607 21.6864 99.9286 21.5283 100.143 21.2648C100.518 20.8959 100.679 20.3689 100.679 19.8418C100.732 19.3148 100.518 18.7878 100.143 18.4189C99.9286 18.1554 99.6607 17.9972 99.3393 17.8918C99.6607 17.7864 99.9286 17.6283 100.143 17.3648C100.518 16.9959 100.679 16.4689 100.679 15.9418C100.732 15.4148 100.518 14.8878 100.143 14.5189C99.4464 13.781 98.2679 13.7283 97.5179 14.4135C97.4643 14.4135 97.4643 14.4662 97.4107 14.5189C97.0893 14.8878 96.875 15.4148 96.875 15.9418C96.875 16.4689 97.0893 16.9432 97.4107 17.3648C97.625 17.6283 97.9464 17.7864 98.2679 17.8918C97.9464 17.9972 97.625 18.1554 97.4107 18.4189C97.0893 18.7878 96.875 19.3148 96.875 19.8418C96.875 20.3689 97.0893 20.8432 97.4107 21.2648C97.625 21.5283 97.9464 21.6864 98.2679 21.7918C97.9464 21.8972 97.625 22.0554 97.4107 22.3189C97.0893 22.6878 96.875 23.1621 96.875 23.6891C96.875 24.2162 97.0893 24.7432 97.4107 25.1648C97.7857 25.5337 98.2679 25.7445 98.8036 25.7445C99.3393 25.7445 99.8214 25.5337 100.143 25.1648C100.518 24.7432 100.679 24.2162 100.679 23.6891C100.679 23.1621 100.518 22.6878 100.143 22.3189Z" fill="white"/>
<path d="M104.536 26.2189C104.375 26.4297 104.214 26.6405 104.161 26.904C104.054 26.6405 103.893 26.4297 103.732 26.2189C103.089 25.481 101.911 25.4283 101.161 26.0608C101.107 26.1135 101.054 26.1662 101 26.2189C100.625 26.5878 100.464 27.0621 100.464 27.5891C100.464 28.1162 100.625 28.6432 101 29.0648C101.696 29.8027 102.875 29.8554 103.625 29.1702C103.679 29.1702 103.679 29.1175 103.732 29.0648C103.893 28.854 104.054 28.5905 104.161 28.327C104.214 28.5905 104.375 28.854 104.536 29.0648C104.911 29.4337 105.393 29.6446 105.929 29.6446C106.464 29.6446 106.946 29.4337 107.268 29.0648C107.643 28.6432 107.804 28.1162 107.804 27.5891C107.804 27.0621 107.643 26.5878 107.268 26.2189C106.625 25.481 105.446 25.4283 104.696 26.0608C104.643 26.1135 104.589 26.1662 104.536 26.2189Z" fill="white"/>
<path d="M111.393 15.9418C111.393 15.4148 111.179 14.8878 110.857 14.5189C110.161 13.781 108.982 13.7283 108.232 14.4135C108.179 14.4135 108.179 14.4662 108.125 14.5189C107.75 14.8878 107.536 15.4148 107.589 15.9418C107.589 16.4689 107.75 16.9959 108.125 17.3648C108.339 17.6283 108.607 17.7864 108.929 17.8918C108.607 17.9972 108.339 18.1554 108.125 18.4189C107.75 18.7878 107.536 19.3148 107.589 19.8418C107.589 20.3689 107.75 20.8959 108.125 21.2648C108.339 21.5283 108.607 21.6864 108.929 21.7918C108.607 21.8972 108.339 22.0554 108.125 22.3189C107.75 22.6878 107.589 23.1621 107.589 23.6891C107.589 24.2162 107.75 24.7432 108.125 25.1648C108.447 25.5337 108.929 25.7445 109.464 25.7445C110 25.7445 110.482 25.5337 110.857 25.1648C111.179 24.7432 111.393 24.2162 111.393 23.6891C111.393 23.1621 111.179 22.6878 110.857 22.3189C110.643 22.0554 110.322 21.8972 110 21.7918C110.322 21.6864 110.643 21.5283 110.857 21.2648C111.179 20.8432 111.393 20.3689 111.393 19.8418C111.393 19.3148 111.179 18.7878 110.857 18.4189C110.643 18.1554 110.322 17.9972 110 17.8918C110.322 17.7864 110.643 17.6283 110.857 17.3648C111.179 16.9432 111.393 16.4689 111.393 15.9418Z" fill="white"/>
<path d="M120.821 10.6187C120.661 10.8295 120.5 11.0403 120.446 11.3039C120.339 11.0403 120.179 10.8295 120.018 10.6187C119.321 9.88089 118.143 9.82818 117.393 10.5133C117.339 10.5133 117.339 10.566 117.286 10.6187C117.071 10.8295 116.964 11.0403 116.857 11.3039C116.75 11.0403 116.643 10.8295 116.429 10.6187C115.732 9.88089 114.554 9.82818 113.804 10.5133C113.75 10.5133 113.75 10.566 113.696 10.6187C113.321 10.9876 113.107 11.5147 113.161 12.0417C113.161 12.5687 113.321 13.0958 113.696 13.4647C114.393 14.2025 115.571 14.2552 116.321 13.5701C116.375 13.5701 116.375 13.5174 116.429 13.4647C116.643 13.2539 116.75 13.043 116.857 12.7795C116.964 13.043 117.071 13.2539 117.286 13.4647C117.5 13.7282 117.768 13.8863 118.089 13.9917C117.768 14.0971 117.5 14.2552 117.286 14.5187C116.911 14.8876 116.696 15.4147 116.696 15.9417C116.696 16.4687 116.911 16.9958 117.286 17.3647C117.5 17.6282 117.768 17.7863 118.089 17.8917C117.768 17.9971 117.5 18.1552 117.286 18.4187C116.911 18.7876 116.696 19.3147 116.696 19.8417C116.696 20.3687 116.911 20.8958 117.286 21.2647C117.5 21.5282 117.768 21.6863 118.089 21.7917C117.286 22.1079 116.75 22.8458 116.696 23.689C116.696 24.216 116.911 24.7431 117.286 25.1647C117.5 25.4282 117.768 25.5863 118.089 25.6917C117.768 25.7971 117.5 25.9552 117.286 26.2187C116.911 26.5876 116.696 27.062 116.696 27.589C116.696 28.116 116.911 28.6431 117.286 29.0647C117.607 29.4336 118.089 29.6444 118.625 29.6444C119.161 29.6444 119.643 29.4336 120.018 29.0647C120.393 28.6431 120.554 28.116 120.554 27.589C120.554 27.062 120.393 26.5876 120.018 26.2187C119.804 25.9552 119.482 25.7971 119.161 25.6917C119.482 25.5863 119.804 25.4282 120.018 25.1647C120.393 24.7431 120.554 24.216 120.554 23.689C120.554 23.162 120.393 22.6876 120.018 22.3187C119.804 22.0552 119.482 21.8971 119.161 21.7917C120.018 21.5282 120.607 20.7376 120.554 19.8417C120.607 19.3147 120.393 18.7876 120.018 18.4187C119.804 18.1552 119.482 17.9971 119.161 17.8917C120.018 17.6282 120.607 16.8376 120.554 15.9417C120.607 15.4147 120.393 14.8876 120.018 14.5187C119.804 14.2552 119.482 14.0971 119.161 13.9917C119.482 13.8863 119.804 13.7282 120.018 13.4647C120.179 13.2539 120.339 13.043 120.446 12.7795C120.5 13.043 120.661 13.2539 120.821 13.4647C121.518 14.2025 122.696 14.2552 123.446 13.5701C123.5 13.5701 123.5 13.5174 123.554 13.4647C123.929 13.0958 124.143 12.5687 124.143 12.0417C124.143 11.5147 123.929 10.9876 123.554 10.6187C122.857 9.88089 121.679 9.82818 120.929 10.5133C120.875 10.566 120.821 10.566 120.821 10.6187Z" fill="white"/>
<path d="M133.572 18.4187C133.357 18.6295 133.25 18.8403 133.143 19.1038C133.036 18.8403 132.929 18.6295 132.714 18.4187C132.072 17.6809 130.893 17.6282 130.143 18.2606C130.089 18.3133 130.036 18.366 129.982 18.4187C129.661 18.7876 129.447 19.3146 129.447 19.8417C129.447 20.3687 129.661 20.843 129.982 21.2646C130.679 22.0025 131.857 22.0552 132.607 21.3701C132.661 21.3701 132.661 21.3173 132.714 21.2646C132.875 21.0538 133.036 20.843 133.143 20.5795C133.25 20.843 133.411 21.0538 133.572 21.2646C133.893 21.6336 134.375 21.8444 134.911 21.8444C135.447 21.8444 135.929 21.6336 136.304 21.2646C136.625 20.843 136.839 20.3687 136.839 19.8417C136.839 19.3146 136.625 18.7876 136.304 18.4187C135.607 17.6809 134.429 17.6282 133.679 18.3133C133.625 18.366 133.572 18.366 133.572 18.4187Z" fill="white"/>
<path d="M132.714 13.4647C132.929 13.2539 133.036 13.0431 133.143 12.7795C133.25 13.0431 133.357 13.2539 133.571 13.4647C134.268 14.2025 135.446 14.2552 136.196 13.5701C136.25 13.5701 136.25 13.5174 136.304 13.4647C136.464 13.2539 136.625 13.0431 136.732 12.7795C136.946 13.5701 137.696 14.0971 138.5 14.0444C139.036 14.0444 139.518 13.8336 139.839 13.4647C140.589 12.6741 140.589 11.4093 139.839 10.6187C139.143 9.88089 137.964 9.82818 137.214 10.5133C137.161 10.5133 137.161 10.566 137.107 10.6187C136.946 10.8295 136.786 11.0403 136.732 11.3039C136.625 11.0403 136.464 10.8295 136.304 10.6187C135.607 9.88089 134.429 9.82818 133.679 10.5133C133.625 10.5133 133.625 10.566 133.571 10.6187C133.357 10.8295 133.25 11.0403 133.143 11.3039C133.036 11.0403 132.929 10.8295 132.714 10.6187C132.018 9.88089 130.839 9.82818 130.089 10.5133C130.036 10.5133 130.036 10.566 129.982 10.6187C129.232 11.4093 129.232 12.6741 129.982 13.4647C130.679 14.2025 131.857 14.2552 132.607 13.5701C132.661 13.5174 132.714 13.4647 132.714 13.4647Z" fill="white"/>
<path d="M133.572 26.2189C133.357 26.4297 133.25 26.6405 133.143 26.904C133.036 26.6405 132.929 26.4297 132.714 26.2189C132.072 25.481 130.893 25.4283 130.143 26.0608C130.089 26.1135 130.036 26.1662 129.982 26.2189C129.822 26.4297 129.661 26.6405 129.554 26.904C129.5 26.6405 129.339 26.4297 129.179 26.2189C128.536 25.481 127.357 25.4283 126.607 26.0608C126.554 26.1135 126.5 26.1662 126.447 26.2189C126.072 26.5878 125.911 27.0621 125.911 27.5891C125.911 28.1162 126.072 28.6432 126.447 29.0648C127.143 29.8027 128.322 29.8554 129.072 29.1702C129.125 29.1702 129.125 29.1175 129.179 29.0648C129.339 28.854 129.5 28.5905 129.554 28.327C129.661 28.5905 129.822 28.854 129.982 29.0648C130.679 29.8027 131.857 29.8554 132.607 29.1702C132.661 29.1702 132.661 29.1175 132.714 29.0648C132.929 28.854 133.036 28.5905 133.143 28.327C133.25 28.5905 133.357 28.854 133.572 29.0648C133.893 29.4337 134.375 29.6446 134.911 29.6446C135.447 29.6446 135.929 29.4337 136.304 29.0648C136.625 28.6432 136.839 28.1162 136.839 27.5891C136.839 27.0621 136.625 26.5878 136.304 26.2189C135.661 25.481 134.482 25.4283 133.732 26.0608C133.679 26.1135 133.625 26.1662 133.572 26.2189Z" fill="white"/>
<path d="M127.786 17.9445C128.321 17.9445 128.804 17.7337 129.179 17.3648C129.5 16.9432 129.714 16.4689 129.714 15.9418C129.714 15.4148 129.5 14.8878 129.179 14.5189C128.482 13.781 127.304 13.7283 126.554 14.4135C126.5 14.4135 126.5 14.4662 126.446 14.5189C126.071 14.8878 125.857 15.4148 125.911 15.9418C125.911 16.4689 126.071 16.9959 126.446 17.3648C126.768 17.7337 127.25 17.9445 127.786 17.9445Z" fill="white"/>
<path d="M137.107 22.319C136.786 22.6879 136.572 23.1622 136.572 23.6892C136.572 24.2163 136.786 24.7433 137.107 25.1649C137.482 25.5338 137.964 25.7446 138.5 25.7446C139.036 25.7446 139.518 25.5338 139.839 25.1649C140.214 24.7433 140.375 24.2163 140.375 23.6892C140.375 23.1622 140.214 22.6879 139.839 22.319C139.197 21.5811 138.018 21.5284 137.268 22.1609C137.214 22.2136 137.161 22.2663 137.107 22.319Z" fill="white"/>
</g>
<defs>
<clipPath id="clip0_802:8889">
<rect width="150" height="39" fill="white" transform="translate(0.5 0.5)"/>
</clipPath>
</defs>
</svg>
